Jump_normalized_Motion_pl08
version=1
nRows=8
nColumns=43
inDegrees=yes
endheader
time		pelvis_tilt		pelvis_list		pelvis_rotation		pelvis_tx		pelvis_ty		pelvis_tz		hip_flexion_r		hip_adduction_r		hip_rotation_r		knee_angle_r		ankle_angle_r		subtalar_angle_r		mtp_angle_r		hip_flexion_l		hip_adduction_l		hip_rotation_l		knee_angle_l		ankle_angle_l		subtalar_angle_l		mtp_angle_l		lumbar_extension		lumbar_bending		lumbar_rotation		neck_flexion		neck_lateral_bending		neck_rotation		arm_flex_r		arm_add_r		arm_rot_r		elbow_flex_r		pro_sup_r		wrist_flex_r		wrist_dev_r		hand_finger_flex_r		arm_flex_l		arm_add_l		arm_rot_l		elbow_flex_l		pro_sup_l		wrist_flex_l		wrist_dev_l		hand_finger_flex_l		
1.775000		1.765179		-24.109222		88.936186		-0.007869		1.641179		1.484193		77.384111		-7.857390		9.726104		-133.414192		12.190397		3.896292		10.494000		68.928889		-11.316826		6.231095		-135.217999		25.278830		8.738927		15.928539		-34.271163		-1.360988		1.426934		23.821926		7.496915		-0.456433		107.162343		-9.349939		26.110101		64.011549		83.539704		-3.136126		-7.291847		-32.810088		108.862117		-5.565429		22.307907		55.722470		97.430341		-17.495208		-4.615505		-1.446155		
1.776818		1.819960		-24.018463		88.957979		-0.008018		1.641362		1.480639		77.058404		-7.930393		9.662686		-133.318346		11.552776		3.894626		10.469187		68.492962		-11.398537		6.220086		-135.148814		24.876213		8.813579		15.927171		-34.028837		-1.311378		1.425879		23.383972		7.586829		-0.525027		107.297755		-9.093150		26.040563		63.633537		83.656771		-3.270103		-7.260065		-32.889498		108.898406		-5.377059		22.131597		55.464874		97.526701		-17.711442		-4.647886		-1.694912		
1.778636		1.902354		-23.744705		88.990377		-0.008153		1.641973		1.476901		76.497321		-7.968453		9.516656		-133.180822		10.708377		3.503083		10.457095		67.829213		-11.460310		6.231423		-135.028935		24.470062		8.776473		15.985481		-34.013963		-1.222503		1.433328		22.945105		7.545425		-0.429519		107.470712		-8.832633		26.017087		63.212952		84.053759		-3.438377		-7.511030		-32.960487		108.986020		-5.252027		22.056218		55.108594		97.953568		-18.045444		-5.000508		-2.287579		
1.780455		1.983496		-23.427445		89.023626		-0.008272		1.642691		1.473084		75.882802		-8.001316		9.359070		-133.032177		9.787701		3.042697		10.444645		67.109216		-11.502567		6.249094		-134.888282		24.031765		8.723476		16.054919		-34.050245		-1.131372		1.446279		22.470291		7.464694		-0.301217		107.628929		-8.586815		25.991106		62.817498		84.490679		-3.601258		-7.828824		-33.008491		109.063117		-5.146863		21.997844		54.747056		98.438653		-18.382687		-5.416453		-2.939103		
1.782273		2.011177		-23.309079		89.040341		-0.008367		1.642961		1.469361		75.531652		-8.081482		9.315517		-132.925186		9.010393		3.077559		10.408228		66.630553		-11.522167		6.245549		-134.776551		23.503398		8.823961		16.050322		-33.830579		-1.104154		1.460432		21.889282		7.502354		-0.369916		107.675344		-8.391804		25.874695		62.574071		84.543531		-3.686225		-7.838165		-33.002697		109.016276		-4.987292		21.808805		54.547378		98.503478		-18.517675		-5.445935		-3.148159		
1.784091		2.014395		-22.980265		89.042154		-0.008572		1.643651		1.465501		74.949069		-8.152576		9.218841		-132.760290		7.972432		2.531466		10.364061		65.896975		-11.539309		6.151757		-134.634429		23.020075		8.681698		16.132507		-33.869643		-1.072219		1.438384		21.452403		7.404137		-0.231575		107.810275		-8.144799		25.813568		62.147662		84.744185		-3.743015		-8.144238		-32.805210		109.057991		-4.872467		21.690796		54.173947		98.941341		-18.705634		-5.870489		-3.692519		
1.785909		2.014311		-22.733018		89.041589		-0.008762		1.644160		1.461673		74.467476		-8.223602		9.159746		-132.607069		7.005177		2.235757		10.314269		65.271802		-11.545293		6.086515		-134.503936		22.487094		8.636905		16.175913		-33.802610		-1.050848		1.427415		20.947418		7.370149		-0.179979		107.894763		-7.934721		25.754330		61.804329		84.846739		-3.796829		-8.313986		-32.658580		109.038406		-4.749454		21.544202		53.879104		99.216058		-18.863576		-6.123941		-4.070990		
1.787727		2.007361		-22.572189		89.035156		-0.008921		1.644475		1.457885		74.096222		-8.294212		9.145090		-132.468949		6.104617		2.191330		10.254864		64.758478		-11.538893		6.044387		-134.385608		21.902547		8.681672		16.179931		-33.624450		-1.046440		1.428035		20.376676		7.400336		-0.216628		107.928167		-7.762504		25.695679		61.549103		84.828241		-3.846170		-8.339539		-32.557491		108.958486		-4.615253		21.362728		53.662145		99.319651		-18.988067		-6.193689		-4.262473		
